<svg xmlns="http://www.w3.org/2000/svg" version="1.1" xmlns:xlink="http://www.w3.org/1999/xlink" width="512" height="512" x="0" y="0" viewBox="0 0 60 60" style="enable-background:new 0 0 512 512" xml:space="preserve" class=""><g><path fill="#f4b161" d="M55 9.741v17.791c0 14.518-9.968 27.286-24.444 31.391a2.04 2.04 0 0 1-1.112 0C14.968 54.818 5 42.05 5 27.532V9.741a2.664 2.664 0 0 1 2.526-2.666c11.31-.462 18.351-3.99 21.124-5.692a2.569 2.569 0 0 1 2.7 0c2.773 1.7 9.814 5.23 21.124 5.692A2.664 2.664 0 0 1 55 9.741Z" opacity="1" data-original="#f4b161" class=""></path><path fill="#f9ca6d" d="M30.626 54.645a2.029 2.029 0 0 1-1.252 0C17.3 50.706 9 39.77 9 27.5V12.849a1.991 1.991 0 0 1 1.8-1.989 48.039 48.039 0 0 0 18.27-5.114 1.965 1.965 0 0 1 1.86 0 48.064 48.064 0 0 0 18.27 5.113 1.991 1.991 0 0 1 1.8 1.989V27.5c0 12.27-8.295 23.206-20.374 27.145Z" opacity="1" data-original="#f9ca6d" class=""></path><path fill="#f4b161" d="M23.289 30.651 18.328 25.6a1.142 1.142 0 0 1 .645-1.93l6.784-.97L29 16.6a1.126 1.126 0 0 1 2 0l3.247 6.1 6.784.97a1.142 1.142 0 0 1 .645 1.93l-4.961 5.048 1.218 7.011a1.132 1.132 0 0 1-1.652 1.2L30 35.432l-6.277 3.428a1.132 1.132 0 0 1-1.652-1.2Z" opacity="1" data-original="#f4b161" class=""></path><path fill="#373737" d="m41.169 22.684-6.281-.9-3.009-5.654a2.127 2.127 0 0 0-3.758 0l-3.009 5.654-6.281.9a2.141 2.141 0 0 0-1.216 3.62l4.6 4.682-1.13 6.5a2.126 2.126 0 0 0 3.115 2.251l5.8-3.165 5.8 3.165a2.131 2.131 0 0 0 3.116-2.246l-1.13-6.5 4.6-4.682a2.142 2.142 0 0 0-1.217-3.62Zm-.21 2.218L36 29.951a1 1 0 0 0-.272.872l1.217 7.01a.131.131 0 0 1-.055.141.107.107 0 0 1-.131.007l-6.278-3.426a1 1 0 0 0-.958 0l-6.278 3.426a.11.11 0 0 1-.131-.007.131.131 0 0 1-.055-.141l1.217-7.01a1 1 0 0 0-.276-.872L19.042 24.9a.131.131 0 0 1-.033-.148.122.122 0 0 1 .105-.091l6.784-.97a1 1 0 0 0 .742-.52l3.247-6.1a.126.126 0 0 1 .226 0l3.247 6.1a1 1 0 0 0 .742.52l6.784.97a.122.122 0 0 1 .1.091.133.133 0 0 1-.027.148Z" opacity="1" data-original="#373737" class=""></path><path fill="#373737" d="M29.171 59.885a3.042 3.042 0 0 0 1.657 0C45.649 55.682 56 42.378 56 27.532V18a1 1 0 0 0-2 0v9.532C54 41.488 44.247 54 30.282 57.961a1.062 1.062 0 0 1-.565 0C15.753 54 6 41.488 6 27.532V9.741a1.656 1.656 0 0 1 1.567-1.667c11.693-.478 19-4.242 21.606-5.839a1.578 1.578 0 0 1 1.654 0c2.6 1.6 9.913 5.361 21.6 5.839A1.657 1.657 0 0 1 54 9.741V14a1 1 0 0 0 2 0V9.741a3.655 3.655 0 0 0-3.485-3.665C41.291 5.617 34.341 2.045 31.874.531a3.564 3.564 0 0 0-3.748 0c-2.467 1.514-9.417 5.086-20.647 5.545A3.654 3.654 0 0 0 4 9.741v17.791c0 14.846 10.351 28.15 25.171 32.353Z" opacity="1" data-original="#373737" class=""></path><path fill="#373737" d="M31.4 4.863a2.969 2.969 0 0 0-2.8 0 47.048 47.048 0 0 1-17.895 5A2.973 2.973 0 0 0 8 12.849V27.5c0 12.7 8.465 23.99 21.064 28.1a3.053 3.053 0 0 0 1.872 0C43.535 51.487 52 40.2 52 27.5V12.848a3.009 3.009 0 0 0-2.7-2.985 47.043 47.043 0 0 1-17.9-5ZM50 12.848V27.5c0 11.83-7.91 22.357-19.684 26.2a1.019 1.019 0 0 1-.632 0C17.91 49.854 10 39.327 10 27.5V12.849a1 1 0 0 1 .888-.993A49.07 49.07 0 0 0 29.54 6.629a.963.963 0 0 1 .92 0 49.046 49.046 0 0 0 18.653 5.226 1 1 0 0 1 .887.993Z" opacity="1" data-original="#373737" class=""></path></g></svg>